<svg width="291" height="143" viewBox="0 0 291 143" fill="none" xmlns="http://www.w3.org/2000/svg">
<path d="M275.135 0H16.0527C7.29097 0 0.188171 7.10279 0.188171 15.8645V104.891C0.188171 113.652 7.29097 120.755 16.0527 120.755H275.135C283.897 120.755 291 113.652 291 104.891V15.8645C291 7.10279 283.897 0 275.135 0Z" fill="white"/>
<path d="M231.229 55.9704C232.324 57.0779 232.939 58.5727 232.939 60.1303C232.939 61.6879 232.324 63.1827 231.229 64.2902L216.626 79.2571C216.44 79.4461 216.219 79.5962 215.974 79.6985C215.73 79.8008 215.467 79.8532 215.202 79.8526C214.946 79.8556 214.691 79.8063 214.454 79.7077C214.217 79.6091 214.002 79.4632 213.823 79.279C213.638 79.099 213.49 78.8843 213.388 78.6472C213.286 78.41 213.231 78.155 213.227 77.8968C213.224 77.6386 213.271 77.3822 213.367 77.1423C213.462 76.9023 213.604 76.6835 213.784 76.4984L228.392 61.5403C228.579 61.3579 228.727 61.14 228.829 60.8994C228.93 60.6587 228.982 60.4002 228.982 60.139C228.982 59.8779 228.93 59.6194 228.829 59.3787C228.727 59.1381 228.579 58.9202 228.392 58.7378L213.784 43.7885C213.42 43.4145 213.22 42.9115 213.228 42.39C213.235 41.8686 213.449 41.3714 213.823 41.0079C214.197 40.6444 214.7 40.4443 215.222 40.4517C215.743 40.4591 216.24 40.6734 216.604 41.0473L231.203 55.9923L231.229 55.9704ZM258.571 75.8985H234.925C234.425 75.9318 233.956 76.1539 233.614 76.5198C233.272 76.8857 233.081 77.368 233.081 77.869C233.081 78.37 233.272 78.8523 233.614 79.2181C233.956 79.584 234.425 79.8061 234.925 79.8394H258.571C259.07 79.8061 259.539 79.584 259.881 79.2181C260.224 78.8523 260.414 78.37 260.414 77.869C260.414 77.368 260.224 76.8857 259.881 76.5198C259.539 76.1539 259.07 75.9318 258.571 75.8985Z" fill="#C6C6C6"/>
<path d="M167.582 67.0224C167.586 63.879 166.5 60.8316 164.507 58.4004C162.515 55.9692 159.74 54.3048 156.657 53.6913C153.574 53.0779 150.374 53.5534 147.602 55.0367C144.831 56.52 142.66 58.9192 141.461 61.8247C140.261 64.7302 140.107 67.962 141.025 70.9684C141.943 73.9748 143.876 76.5694 146.494 78.3095C149.111 80.0496 152.252 80.8272 155.379 80.5097C158.507 80.1921 161.427 78.7991 163.641 76.5683V78.6132C163.641 79.1358 163.849 79.637 164.219 80.0065C164.588 80.3761 165.089 80.5837 165.612 80.5837C166.135 80.5837 166.636 80.3761 167.005 80.0065C167.375 79.637 167.582 79.1358 167.582 78.6132V67.2545C167.582 67.2545 167.582 67.2238 167.582 67.2063C167.582 67.1888 167.582 67.0837 167.582 67.0224ZM154.008 76.6558C152.103 76.6558 150.24 76.0908 148.656 75.0323C147.072 73.9738 145.837 72.4692 145.108 70.709C144.379 68.9487 144.188 67.0117 144.56 65.143C144.931 63.2743 145.849 61.5578 147.196 60.2105C148.543 58.8633 150.26 57.9458 152.129 57.5741C153.997 57.2023 155.934 57.3931 157.695 58.1222C159.455 58.8514 160.959 60.0861 162.018 61.6703C163.076 63.2545 163.641 65.1171 163.641 67.0224C163.634 69.5713 162.618 72.0135 160.814 73.8142C159.01 75.6149 156.566 76.6273 154.017 76.6296L154.008 76.6558Z" fill="#575756"/>
<path d="M187.852 53.4568C186.061 53.4554 184.287 53.8097 182.633 54.4989C180.979 55.1882 179.479 56.1988 178.219 57.4722V41.6602C178.219 41.1376 178.011 40.6364 177.642 40.2668C177.272 39.8973 176.771 39.6897 176.248 39.6897C175.726 39.6897 175.224 39.8973 174.855 40.2668C174.485 40.6364 174.278 41.1376 174.278 41.6602V66.7903C174.278 66.7903 174.278 66.821 174.278 66.8385C174.278 66.856 174.278 66.9611 174.278 67.0224C174.278 69.7072 175.074 72.3316 176.565 74.5639C178.057 76.7962 180.177 78.5361 182.657 79.5635C185.138 80.5909 187.867 80.8598 190.5 80.336C193.134 79.8122 195.552 78.5194 197.451 76.621C199.349 74.7225 200.642 72.3038 201.166 69.6706C201.689 67.0375 201.421 64.3081 200.393 61.8277C199.366 59.3473 197.626 57.2273 195.394 55.7357C193.161 54.2441 190.537 53.448 187.852 53.448V53.4568ZM187.852 76.6646C185.947 76.6646 184.084 76.0996 182.5 75.0411C180.916 73.9825 179.681 72.478 178.952 70.7177C178.223 68.9574 178.032 67.0205 178.404 65.1518C178.775 63.2831 179.693 61.5666 181.04 60.2193C182.388 58.872 184.104 57.9545 185.973 57.5828C187.841 57.2111 189.778 57.4019 191.539 58.131C193.299 58.8602 194.803 60.0949 195.862 61.6791C196.921 63.2633 197.486 65.1259 197.486 67.0312C197.476 69.58 196.457 72.0214 194.652 73.8204C192.846 75.6195 190.401 76.6296 187.852 76.6296V76.6646Z" fill="#575756"/>
<path d="M136.703 76.6296H120.501V41.6602C120.501 41.1376 120.294 40.6364 119.924 40.2668C119.555 39.8973 119.054 39.6897 118.531 39.6897C118.008 39.6897 117.507 39.8973 117.138 40.2668C116.768 40.6364 116.56 41.1376 116.56 41.6602V78.6132C116.56 78.8721 116.61 79.1286 116.709 79.368C116.808 79.6073 116.953 79.8247 117.136 80.0078C117.319 80.1909 117.537 80.336 117.776 80.4349C118.016 80.5337 118.272 80.5843 118.531 80.5837H136.712C137.235 80.5837 137.736 80.3761 138.105 80.0065C138.475 79.637 138.682 79.1358 138.682 78.6132C138.682 78.0906 138.475 77.5894 138.105 77.2199C137.736 76.8503 137.235 76.6427 136.712 76.6427L136.703 76.6296Z" fill="#575756"/>
<path d="M83.57 46.0392H101.733V40.1671H83.57C80.6836 40.1729 77.9172 41.323 75.8774 43.3653C73.8377 45.4075 72.6909 48.1753 72.6886 51.0617V52.4148C72.6909 55.3027 73.8389 58.0718 75.8805 60.1143C77.9222 62.1568 80.6908 63.3058 83.5788 63.3093H84.8924H90.8608C92.1903 63.3139 93.464 63.8441 94.404 64.7842C95.3441 65.7243 95.8743 66.998 95.8789 68.3275V69.6849C95.8743 71.0144 95.3441 72.2881 94.404 73.2282C93.464 74.1683 92.1903 74.6984 90.8608 74.703H72.6886V80.5707H90.852C93.7392 80.5672 96.5071 79.4187 98.5487 77.3772C100.59 75.3356 101.739 72.5677 101.742 69.6805V68.3231C101.739 65.4359 100.59 62.6679 98.5487 60.6264C96.5071 58.5849 93.7392 57.4364 90.852 57.4329H89.5384H83.57C82.2398 57.4283 80.9654 56.8975 80.0252 55.9565C79.085 55.0154 78.5553 53.7406 78.5519 52.4104V51.0573C78.5565 49.7278 79.0867 48.4541 80.0267 47.514C80.9668 46.574 82.2405 46.0438 83.57 46.0392Z" fill="#3C3C3B"/>
<path d="M44.3575 51.4383V51.0617C44.361 49.7307 44.8912 48.4552 45.8324 47.5141C46.7735 46.5729 48.049 46.0426 49.38 46.0392H67.5434V40.1671H49.38C46.4917 40.1706 43.7226 41.3196 41.6803 43.3619C39.6379 45.4043 38.489 48.1733 38.4855 51.0617V80.5707H44.3575V63.3137H61.6714V57.4417H44.3575V51.4383Z" fill="#3C3C3B"/>
<path d="M1.68585 129.828H0V142.277H1.14726H1.68585H7.82061V140.736H1.68585V129.828Z" fill="#DADADA"/>
<path d="M15.7154 134.925C15.421 134.536 15.0442 134.218 14.6119 133.992C14.0771 133.718 13.4831 133.58 12.8823 133.59C12.1311 133.58 11.3927 133.785 10.7542 134.181C10.1282 134.576 9.6153 135.127 9.26536 135.779C8.90582 136.478 8.71826 137.252 8.71826 138.038C8.71826 138.824 8.90582 139.599 9.26536 140.298C9.61816 140.945 10.1345 141.489 10.7629 141.874C11.4004 142.264 12.1351 142.466 12.8823 142.457C13.4904 142.468 14.0919 142.33 14.6338 142.054C15.0635 141.83 15.4353 141.509 15.7198 141.117V142.277H17.3531V133.756H15.7154V134.925ZM15.0892 140.123C14.8436 140.393 14.5411 140.606 14.2034 140.746C13.8658 140.887 13.5014 140.95 13.1363 140.933C12.6334 140.942 12.1378 140.811 11.7044 140.556C11.2885 140.309 10.949 139.951 10.7235 139.523C10.4932 139.054 10.3734 138.539 10.3734 138.017C10.3734 137.494 10.4932 136.979 10.7235 136.51C10.9464 136.084 11.2809 135.727 11.6912 135.477C12.1259 135.233 12.6159 135.105 13.1144 135.105C13.6128 135.105 14.1028 135.233 14.5375 135.477C14.9427 135.721 15.2694 136.077 15.4789 136.501C15.711 136.978 15.8252 137.504 15.8117 138.034C15.846 138.797 15.5875 139.544 15.0892 140.123Z" fill="#DADADA"/>
<path d="M26.295 134.168C25.6626 133.772 24.93 133.567 24.1844 133.576C23.5838 133.569 22.9904 133.708 22.4547 133.979C22.0068 134.208 21.6173 134.536 21.3162 134.938V129.469H19.7048V142.277H21.3206V141.099C21.6152 141.5 21.9989 141.827 22.4416 142.054C22.9843 142.328 23.5853 142.466 24.1931 142.457C24.9346 142.464 25.6631 142.262 26.295 141.874C26.9209 141.486 27.4318 140.937 27.775 140.285C28.1291 139.584 28.3135 138.81 28.3135 138.025C28.3135 137.24 28.1291 136.466 27.775 135.766C27.431 135.112 26.9205 134.561 26.295 134.168ZM26.295 139.523C26.0696 139.947 25.7376 140.304 25.3316 140.561C24.9019 140.807 24.415 140.937 23.9195 140.937C23.424 140.937 22.9371 140.807 22.5073 140.561C22.099 140.313 21.7694 139.955 21.5571 139.527C21.3277 139.062 21.2136 138.548 21.2243 138.03C21.214 137.502 21.3311 136.979 21.5658 136.506C21.7784 136.078 22.1079 135.72 22.516 135.472C22.9459 135.221 23.437 135.094 23.9348 135.105C24.4213 135.093 24.9013 135.218 25.3202 135.466C25.739 135.713 26.0799 136.074 26.3037 136.506C26.5398 136.974 26.6627 137.492 26.6627 138.017C26.6627 138.541 26.5398 139.059 26.3037 139.527L26.295 139.523Z" fill="#DADADA"/>
<path d="M36.2872 134.159C35.6008 133.768 34.8223 133.566 34.0321 133.576C33.2394 133.565 32.4584 133.77 31.7727 134.168C31.1152 134.548 30.5663 135.091 30.1788 135.744C29.7772 136.419 29.5711 137.192 29.5832 137.977C29.5645 138.573 29.6658 139.167 29.8811 139.724C30.0964 140.28 30.4212 140.788 30.8364 141.216C31.2516 141.644 31.7486 141.985 32.2979 142.218C32.8473 142.45 33.4378 142.57 34.0343 142.57C34.6309 142.57 35.2214 142.45 35.7707 142.218C36.3201 141.985 36.8171 141.644 37.2323 141.216C37.6474 140.788 37.9723 140.28 38.1876 139.724C38.4028 139.167 38.5041 138.573 38.4854 137.977C38.4949 137.192 38.2889 136.42 37.8899 135.744C37.5032 135.085 36.9506 134.538 36.2872 134.159ZM36.458 139.488C36.2268 139.915 35.885 140.272 35.4684 140.521C35.0307 140.768 34.5368 140.898 34.0343 140.898C33.5319 140.898 33.038 140.768 32.6003 140.521C32.1836 140.272 31.8418 139.915 31.6106 139.488C31.3671 139.027 31.2436 138.512 31.2516 137.99C31.2435 137.477 31.3671 136.971 31.6106 136.519C31.8424 136.097 32.1845 135.746 32.6003 135.503C33.0355 135.253 33.5304 135.126 34.0321 135.135C34.5232 135.122 35.0083 135.245 35.4346 135.489C35.8609 135.733 36.2119 136.089 36.4493 136.519C36.6977 136.969 36.8245 137.476 36.8171 137.99C36.8251 138.512 36.7016 139.027 36.458 139.488Z" fill="#DADADA"/>
<path d="M45.3911 133.8C45.0222 133.647 44.6258 133.571 44.2264 133.577C43.8105 133.55 43.3944 133.624 43.0133 133.793C42.6321 133.961 42.2972 134.219 42.0369 134.544C41.9837 134.618 41.9354 134.696 41.8924 134.776V133.756H40.2854V142.277H41.9012V137.417C41.8757 137.101 41.9133 136.784 42.0117 136.483C42.1102 136.183 42.2677 135.905 42.4748 135.665C42.6685 135.475 42.8987 135.326 43.1516 135.228C43.4045 135.129 43.6748 135.083 43.9461 135.092C44.2029 135.087 44.4583 135.13 44.6993 135.219C44.9271 135.308 45.131 135.449 45.2948 135.63L46.3501 134.536C46.09 134.221 45.7622 133.97 45.3911 133.8Z" fill="#DADADA"/>
<path d="M53.6801 134.925C53.3872 134.532 53.0102 134.209 52.5766 133.979C52.0418 133.705 51.4479 133.567 50.847 133.577C50.0956 133.565 49.3567 133.77 48.7189 134.168C48.0919 134.562 47.5787 135.113 47.2301 135.766C46.8705 136.465 46.683 137.239 46.683 138.025C46.683 138.811 46.8705 139.586 47.2301 140.285C47.5784 140.939 48.0955 141.488 48.7276 141.874C49.3651 142.264 50.0998 142.466 50.847 142.457C51.4551 142.469 52.0567 142.33 52.5985 142.054C53.0267 141.828 53.3979 141.507 53.6845 141.117V142.277H55.3178V133.756H53.6845L53.6801 134.925ZM53.0539 140.123C52.8105 140.393 52.5106 140.607 52.1753 140.749C51.84 140.89 51.4777 140.956 51.1141 140.942C50.6099 140.95 50.1132 140.82 49.6778 140.565C49.2636 140.317 48.9257 139.959 48.7014 139.532C48.471 139.063 48.3513 138.548 48.3513 138.025C48.3513 137.503 48.471 136.988 48.7014 136.519C48.9242 136.093 49.2587 135.736 49.6691 135.486C50.1037 135.242 50.5938 135.114 51.0922 135.114C51.5906 135.114 52.0807 135.242 52.5153 135.486C52.9195 135.732 53.2458 136.087 53.4568 136.51C53.687 136.988 53.801 137.513 53.7896 138.043C53.8179 138.805 53.5549 139.548 53.0539 140.123Z" fill="#DADADA"/>
<path d="M60.5504 130.187H58.9346V133.756H56.8371V135.227H58.9346V142.277H60.5504V135.227H62.6522V133.756H60.5504V130.187Z" fill="#DADADA"/>
<path d="M69.663 130.13L68.3931 128.856L66.0592 131.746L66.7948 132.482L69.663 130.13Z" fill="#DADADA"/>
<path d="M70.1052 134.159C69.0839 133.564 67.8687 133.396 66.7245 133.693C65.5802 133.99 64.5998 134.727 63.9967 135.744C63.5986 136.42 63.3941 137.193 63.4056 137.977C63.4056 139.157 63.8743 140.289 64.7087 141.123C65.543 141.957 66.6746 142.426 67.8545 142.426C69.0344 142.426 70.166 141.957 71.0004 141.123C71.8347 140.289 72.3034 139.157 72.3034 137.977C72.3135 137.201 72.1159 136.437 71.7309 135.763C71.3459 135.089 70.7876 134.531 70.114 134.146L70.1052 134.159ZM70.276 139.488C70.0452 139.914 69.7051 140.27 69.2908 140.521C68.8524 140.768 68.3577 140.898 67.8545 140.898C67.3513 140.898 66.8566 140.768 66.4182 140.521C66.0019 140.273 65.6612 139.916 65.433 139.488C65.1878 139.027 65.0642 138.512 65.0739 137.99C65.0636 137.477 65.1874 136.97 65.433 136.519C65.6623 136.097 66.0031 135.745 66.4182 135.503C66.8551 135.253 67.3514 135.126 67.8545 135.135C68.3448 135.123 68.829 135.246 69.2544 135.49C69.6799 135.734 70.0302 136.09 70.2672 136.519C70.5177 136.968 70.6446 137.476 70.6351 137.99C70.6431 138.512 70.5196 139.027 70.276 139.488Z" fill="#DADADA"/>
<path d="M79.2086 133.8C78.8396 133.647 78.4432 133.571 78.0438 133.577C77.6279 133.55 77.2118 133.624 76.8307 133.793C76.4496 133.961 76.1147 134.219 75.8544 134.544C75.8018 134.614 75.7624 134.698 75.7099 134.776V133.756H74.0984V142.277H75.7099V137.417C75.6839 137.101 75.7217 136.783 75.821 136.482C75.9203 136.182 76.0791 135.904 76.2879 135.665C76.4811 135.474 76.7112 135.325 76.9643 135.227C77.2173 135.128 77.4878 135.082 77.7592 135.092C78.0159 135.088 78.2711 135.131 78.5123 135.219C78.7382 135.309 78.9404 135.45 79.1035 135.63L80.1631 134.536C79.904 134.222 79.5778 133.971 79.2086 133.8Z" fill="#DADADA"/>
<path d="M82.1338 129.986C81.9984 129.982 81.8638 130.006 81.7381 130.057C81.6123 130.107 81.4982 130.182 81.4027 130.278C81.3071 130.374 81.2322 130.489 81.1825 130.615C81.1328 130.74 81.1093 130.875 81.1135 131.011C81.1086 131.147 81.1312 131.284 81.1801 131.412C81.229 131.54 81.3032 131.656 81.3981 131.755C81.5957 131.945 81.8594 132.052 82.1338 132.052C82.4082 132.052 82.6719 131.945 82.8694 131.755C82.965 131.657 83.0398 131.54 83.0894 131.412C83.1391 131.284 83.1625 131.148 83.1584 131.011C83.1617 130.876 83.1377 130.743 83.0881 130.618C83.0384 130.493 82.9641 130.379 82.8694 130.284C82.7742 130.186 82.6596 130.109 82.5329 130.057C82.4063 130.006 82.2704 129.982 82.1338 129.986Z" fill="#DADADA"/>
<path d="M82.9443 133.756H81.3286V142.277H82.9443V133.756Z" fill="#DADADA"/>
<path d="M91.4743 134.159C90.7891 133.768 90.0122 133.567 89.2235 133.577C88.4293 133.565 87.6467 133.769 86.9597 134.168C86.3102 134.551 85.7691 135.094 85.3877 135.744C84.9882 136.42 84.7822 137.192 84.7922 137.977C84.7928 138.76 84.9983 139.528 85.3883 140.207C85.7782 140.885 86.339 141.449 87.0149 141.843C87.6907 142.237 88.4581 142.448 89.2404 142.453C90.0228 142.459 90.793 142.259 91.4743 141.874C92.1489 141.479 92.7068 140.913 93.0914 140.232C93.476 139.551 93.6734 138.781 93.6637 137.999C93.6748 137.211 93.4687 136.436 93.0682 135.757C92.6857 135.094 92.1361 134.543 91.4743 134.159ZM91.645 139.488C91.4108 139.924 91.0606 140.286 90.6333 140.535C90.2059 140.784 89.718 140.909 89.2235 140.898C88.7193 140.907 88.2224 140.776 87.7873 140.521C87.3707 140.272 87.0288 139.915 86.7977 139.488C86.5554 139.027 86.4335 138.511 86.443 137.99C86.4335 137.478 86.5556 136.971 86.7977 136.519C87.0294 136.097 87.3715 135.746 87.7873 135.503C88.2239 135.253 88.7203 135.126 89.2235 135.135C89.7138 135.123 90.198 135.246 90.6235 135.49C91.0489 135.734 91.3992 136.09 91.6363 136.519C91.8867 136.968 92.0136 137.476 92.0041 137.99C92.0121 138.512 91.8886 139.027 91.645 139.488Z" fill="#DADADA"/>
<path d="M105.674 134.938C105.373 134.539 104.987 134.211 104.545 133.979C104.011 133.707 103.419 133.569 102.819 133.576C102.075 133.567 101.344 133.772 100.713 134.168C100.09 134.563 99.5797 135.114 99.233 135.766C98.8735 136.465 98.6859 137.239 98.6859 138.025C98.6859 138.811 98.8735 139.586 99.233 140.285C99.5788 140.935 100.089 141.483 100.713 141.874C101.348 142.267 102.082 142.469 102.828 142.457C103.436 142.467 104.037 142.329 104.58 142.054C105.018 141.824 105.398 141.498 105.692 141.099V142.277H107.325V129.469H105.692L105.674 134.938ZM104.496 140.561C104.073 140.818 103.586 140.948 103.091 140.937C102.589 140.947 102.095 140.816 101.663 140.561C101.253 140.31 100.918 139.953 100.696 139.527C100.465 139.059 100.345 138.543 100.345 138.021C100.345 137.499 100.465 136.983 100.696 136.515C100.918 136.079 101.26 135.715 101.68 135.466C102.101 135.216 102.584 135.091 103.073 135.105C103.568 135.093 104.056 135.224 104.479 135.481C104.881 135.733 105.209 136.086 105.429 136.506C105.674 136.976 105.794 137.5 105.779 138.03C105.789 138.549 105.673 139.062 105.442 139.527C105.226 139.951 104.899 140.308 104.496 140.561Z" fill="#DADADA"/>
<path d="M115.601 134.115C114.967 133.748 114.245 133.562 113.513 133.576C112.739 133.566 111.977 133.764 111.306 134.149C110.635 134.534 110.08 135.093 109.699 135.766C109.307 136.454 109.106 137.234 109.116 138.025C109.098 138.808 109.292 139.58 109.677 140.261C110.063 140.942 110.626 141.505 111.306 141.892C112.007 142.286 112.8 142.487 113.605 142.474C114.254 142.478 114.898 142.349 115.496 142.098C116.075 141.856 116.588 141.481 116.994 141.003L115.952 139.943C115.674 140.274 115.321 140.532 114.923 140.696C114.506 140.869 114.06 140.955 113.609 140.95C113.081 140.951 112.561 140.817 112.098 140.561C111.663 140.322 111.308 139.959 111.078 139.519C110.931 139.234 110.831 138.928 110.78 138.612H117.445C117.479 138.456 117.504 138.298 117.519 138.139C117.519 137.999 117.519 137.872 117.519 137.754C117.532 137.004 117.356 136.263 117.007 135.6C116.684 134.985 116.198 134.471 115.601 134.115ZM112.024 135.429C112.468 135.182 112.97 135.058 113.478 135.07C113.948 135.055 114.413 135.17 114.822 135.402C115.199 135.621 115.503 135.945 115.698 136.335C115.839 136.632 115.931 136.95 115.969 137.277H110.758C110.808 136.982 110.902 136.697 111.039 136.431C111.257 136.009 111.593 135.659 112.006 135.424L112.024 135.429Z" fill="#DADADA"/>
<path d="M124.442 129.828H123.29V142.277H124.976V136.808H130.936V135.262H124.976V131.37H131.238V129.828H124.976H124.442Z" fill="#DADADA"/>
<path d="M138.704 130.13L137.43 128.856L135.096 131.746L135.831 132.482L138.704 130.13Z" fill="#DADADA"/>
<path d="M139.278 134.925C138.984 134.533 138.607 134.21 138.174 133.979C137.633 133.702 137.031 133.564 136.423 133.577C135.673 133.566 134.936 133.771 134.299 134.168C133.672 134.562 133.159 135.113 132.81 135.766C132.451 136.465 132.263 137.239 132.263 138.025C132.263 138.811 132.451 139.586 132.81 140.285C133.159 140.939 133.676 141.488 134.308 141.874C134.944 142.265 135.677 142.467 136.423 142.457C137.031 142.468 137.632 142.33 138.174 142.054C138.602 141.828 138.974 141.507 139.26 141.117V142.277H140.894V133.756H139.26L139.278 134.925ZM138.647 140.123C138.405 140.393 138.106 140.607 137.771 140.748C137.436 140.89 137.075 140.956 136.712 140.942C136.208 140.95 135.711 140.82 135.276 140.565C134.861 140.317 134.523 139.959 134.299 139.532C134.069 139.063 133.949 138.548 133.949 138.025C133.949 137.503 134.069 136.988 134.299 136.519C134.522 136.093 134.856 135.736 135.267 135.486C135.701 135.242 136.192 135.114 136.69 135.114C137.188 135.114 137.678 135.242 138.113 135.486C138.517 135.732 138.844 136.087 139.055 136.51C139.283 136.988 139.396 137.513 139.383 138.043C139.411 138.805 139.148 139.548 138.647 140.123Z" fill="#DADADA"/>
<path d="M149.853 134.168C149.222 133.773 148.491 133.567 147.747 133.576C147.139 133.567 146.538 133.705 145.995 133.979C145.549 134.21 145.16 134.538 144.857 134.938V129.469H143.241V142.277H144.857V141.099C145.152 141.499 145.536 141.826 145.977 142.054C146.52 142.327 147.121 142.465 147.729 142.457C148.472 142.467 149.203 142.265 149.835 141.874C150.462 141.487 150.974 140.938 151.315 140.285C151.669 139.584 151.854 138.81 151.854 138.025C151.854 137.24 151.669 136.466 151.315 135.766C150.977 135.113 150.473 134.562 149.853 134.168ZM149.853 139.523C149.627 139.949 149.291 140.307 148.881 140.561C148.451 140.807 147.964 140.937 147.468 140.937C146.973 140.937 146.486 140.807 146.056 140.561C145.647 140.314 145.316 139.955 145.102 139.527C144.881 139.054 144.767 138.539 144.767 138.017C144.767 137.495 144.881 136.979 145.102 136.506C145.313 136.078 145.643 135.719 146.052 135.472C146.482 135.231 146.967 135.104 147.46 135.104C147.953 135.104 148.438 135.231 148.868 135.472C149.279 135.722 149.613 136.079 149.835 136.506C150.071 136.974 150.194 137.492 150.194 138.017C150.194 138.541 150.071 139.059 149.835 139.527L149.853 139.523Z" fill="#DADADA"/>
<path d="M158.798 133.8C158.428 133.647 158.03 133.571 157.629 133.577C157.213 133.55 156.797 133.624 156.416 133.793C156.035 133.961 155.7 134.219 155.44 134.544C155.387 134.614 155.348 134.698 155.3 134.772V133.756H153.697V142.277H155.313V137.417C155.286 137.101 155.324 136.784 155.422 136.483C155.521 136.182 155.679 135.904 155.887 135.665C156.08 135.474 156.31 135.325 156.563 135.227C156.816 135.128 157.086 135.082 157.358 135.092C157.615 135.087 157.87 135.13 158.111 135.219C158.337 135.309 158.539 135.45 158.702 135.63L159.762 134.536C159.5 134.221 159.171 133.969 158.798 133.8Z" fill="#DADADA"/>
<path d="M162.53 133.756H160.914V142.277H162.53V133.756Z" fill="#DADADA"/>
<path d="M161.719 129.986C161.583 129.982 161.447 130.006 161.32 130.057C161.193 130.109 161.079 130.186 160.984 130.284C160.89 130.38 160.817 130.494 160.768 130.618C160.719 130.743 160.696 130.877 160.699 131.011C160.695 131.147 160.718 131.283 160.767 131.411C160.816 131.539 160.889 131.656 160.984 131.755C161.079 131.853 161.193 131.93 161.32 131.981C161.447 132.032 161.583 132.057 161.719 132.053C161.856 132.058 161.992 132.034 162.119 131.982C162.246 131.931 162.36 131.853 162.455 131.755C162.55 131.656 162.625 131.54 162.675 131.412C162.724 131.284 162.748 131.148 162.744 131.011C162.747 130.876 162.723 130.742 162.673 130.618C162.624 130.493 162.549 130.379 162.455 130.284C162.36 130.185 162.246 130.108 162.119 130.056C161.992 130.005 161.856 129.981 161.719 129.986Z" fill="#DADADA"/>
<path d="M167.373 135.503C167.809 135.254 168.306 135.126 168.809 135.135C169.237 135.131 169.662 135.214 170.057 135.381C170.428 135.538 170.756 135.781 171.016 136.09L172.093 135.013C171.695 134.552 171.198 134.187 170.639 133.944C170.061 133.696 169.438 133.571 168.809 133.577C168.014 133.565 167.231 133.766 166.541 134.159C165.875 134.537 165.324 135.085 164.942 135.748C164.56 136.439 164.36 137.215 164.36 138.004C164.36 138.792 164.56 139.568 164.942 140.259C165.322 140.928 165.874 141.483 166.541 141.866C167.23 142.264 168.013 142.468 168.809 142.457C169.441 142.461 170.068 142.333 170.648 142.08C171.203 141.84 171.697 141.478 172.093 141.021L171.033 139.943C170.766 140.251 170.432 140.493 170.057 140.653C169.662 140.819 169.237 140.903 168.809 140.898C168.305 140.906 167.808 140.776 167.373 140.521C166.959 140.274 166.618 139.92 166.387 139.497C166.151 139.036 166.028 138.526 166.028 138.008C166.028 137.49 166.151 136.98 166.387 136.519C166.617 136.097 166.957 135.745 167.373 135.503Z" fill="#DADADA"/>
<path d="M179.97 134.925C179.676 134.533 179.3 134.21 178.867 133.979C178.325 133.702 177.723 133.564 177.115 133.576C176.365 133.565 175.628 133.771 174.992 134.168C174.363 134.56 173.85 135.112 173.503 135.766C173.143 136.465 172.956 137.239 172.956 138.025C172.956 138.811 173.143 139.586 173.503 140.285C173.851 140.939 174.368 141.488 175 141.874C175.636 142.265 176.369 142.467 177.115 142.457C177.723 142.468 178.325 142.329 178.867 142.054C179.295 141.828 179.666 141.507 179.953 141.117V142.277H181.582V133.756H179.97V134.925ZM179.357 140.123C179.115 140.393 178.815 140.607 178.481 140.748C178.146 140.89 177.785 140.956 177.422 140.942C176.918 140.95 176.421 140.82 175.986 140.565C175.571 140.317 175.233 139.959 175.009 139.532C174.779 139.063 174.659 138.548 174.659 138.025C174.659 137.503 174.779 136.988 175.009 136.519C175.232 136.093 175.566 135.736 175.977 135.486C176.411 135.242 176.9 135.113 177.398 135.113C177.895 135.113 178.385 135.242 178.819 135.486C179.225 135.729 179.552 136.085 179.76 136.51C179.992 136.987 180.106 137.513 180.093 138.043C180.121 138.805 179.858 139.548 179.357 140.123Z" fill="#DADADA"/>
<path d="M185.628 135.306C185.953 135.125 186.324 135.041 186.696 135.065C187.107 135.058 187.514 135.144 187.887 135.315C188.231 135.482 188.531 135.728 188.763 136.033L189.805 134.995C189.48 134.535 189.037 134.172 188.522 133.944C187.958 133.703 187.349 133.583 186.735 133.594C186.178 133.578 185.624 133.683 185.111 133.9C184.685 134.085 184.321 134.39 184.064 134.776C183.806 135.174 183.674 135.642 183.688 136.116C183.666 136.552 183.781 136.983 184.016 137.351C184.244 137.663 184.545 137.916 184.892 138.087C185.245 138.268 185.614 138.415 185.995 138.525C186.384 138.638 186.751 138.752 187.099 138.866C187.407 138.96 187.697 139.108 187.953 139.304C188.061 139.39 188.147 139.501 188.204 139.628C188.262 139.754 188.288 139.892 188.281 140.031C188.284 140.178 188.248 140.323 188.176 140.451C188.103 140.579 187.997 140.685 187.869 140.758C187.513 140.95 187.109 141.039 186.705 141.016C186.235 141.023 185.769 140.929 185.338 140.74C184.921 140.54 184.554 140.248 184.266 139.886L183.224 140.928C183.489 141.252 183.804 141.533 184.156 141.76C184.52 141.995 184.915 142.176 185.33 142.299C185.771 142.427 186.228 142.491 186.687 142.487C187.508 142.529 188.317 142.281 188.973 141.787C189.254 141.558 189.477 141.268 189.625 140.938C189.773 140.608 189.842 140.248 189.827 139.886C189.849 139.437 189.733 138.993 189.494 138.612C189.268 138.288 188.968 138.024 188.618 137.841C188.271 137.648 187.904 137.494 187.524 137.382L186.42 137.053C186.118 136.967 185.832 136.834 185.571 136.659C185.466 136.584 185.381 136.483 185.324 136.367C185.268 136.251 185.241 136.123 185.247 135.994C185.242 135.855 185.275 135.718 185.342 135.597C185.409 135.476 185.508 135.376 185.628 135.306Z" fill="#DADADA"/>
<path d="M201.821 134.938C201.52 134.539 201.134 134.211 200.691 133.979C200.157 133.707 199.565 133.569 198.966 133.576C198.218 133.565 197.484 133.77 196.851 134.168C196.227 134.563 195.717 135.114 195.371 135.766C195.011 136.465 194.824 137.239 194.824 138.025C194.824 138.811 195.011 139.586 195.371 140.285C195.717 140.935 196.227 141.483 196.851 141.874C197.485 142.267 198.22 142.469 198.966 142.457C199.574 142.467 200.175 142.329 200.717 142.054C201.157 141.826 201.537 141.499 201.83 141.099V142.277H203.463V129.469H201.821V134.938ZM200.643 140.561C200.22 140.818 199.732 140.948 199.237 140.937C198.736 140.947 198.241 140.816 197.81 140.561C197.399 140.31 197.065 139.953 196.842 139.527C196.612 139.059 196.492 138.543 196.492 138.021C196.492 137.499 196.612 136.983 196.842 136.515C197.065 136.079 197.406 135.715 197.827 135.466C198.248 135.216 198.731 135.091 199.22 135.105C199.715 135.093 200.202 135.224 200.625 135.481C201.027 135.733 201.355 136.086 201.576 136.506C201.82 136.976 201.941 137.5 201.926 138.03C201.936 138.549 201.819 139.063 201.584 139.527C201.371 139.952 201.046 140.309 200.643 140.561Z" fill="#DADADA"/>
<path d="M211.734 134.115C211.099 133.748 210.375 133.562 209.641 133.576C208.868 133.566 208.105 133.764 207.434 134.149C206.764 134.534 206.208 135.093 205.827 135.766C205.436 136.454 205.235 137.234 205.245 138.025C205.229 138.807 205.424 139.578 205.81 140.259C206.195 140.939 206.756 141.503 207.434 141.892C208.136 142.286 208.929 142.487 209.733 142.474C210.383 142.478 211.026 142.349 211.625 142.098C212.203 141.856 212.716 141.481 213.122 141.003L212.085 139.943C211.805 140.273 211.45 140.531 211.051 140.696C210.635 140.869 210.188 140.955 209.737 140.95C209.206 140.961 208.682 140.834 208.214 140.583C207.776 140.345 207.419 139.982 207.189 139.54C207.042 139.256 206.942 138.95 206.891 138.634H213.56C213.595 138.455 213.617 138.297 213.63 138.161C213.643 138.025 213.63 137.894 213.63 137.776C213.643 137.026 213.466 136.285 213.118 135.621C212.803 135.002 212.325 134.481 211.734 134.115ZM208.152 135.429C208.596 135.182 209.098 135.058 209.606 135.07C210.076 135.055 210.542 135.17 210.95 135.402C211.327 135.621 211.632 135.945 211.826 136.335C211.972 136.63 212.063 136.949 212.098 137.277H206.904C206.954 136.982 207.048 136.697 207.185 136.431C207.403 136.009 207.739 135.659 208.152 135.424V135.429Z" fill="#DADADA"/>
<path d="M225.913 136.23C225.549 135.955 225.152 135.727 224.731 135.551C224.293 135.372 223.855 135.205 223.417 135.056C223.008 134.919 222.608 134.753 222.222 134.562C221.888 134.406 221.59 134.184 221.346 133.909C221.113 133.623 220.995 133.261 221.013 132.893C221.003 132.656 221.052 132.42 221.155 132.206C221.258 131.992 221.412 131.807 221.604 131.667C222.076 131.353 222.636 131.199 223.202 131.229C223.709 131.221 224.21 131.332 224.665 131.553C225.122 131.795 225.526 132.124 225.856 132.521L227.003 131.374C226.577 130.846 226.038 130.42 225.427 130.126C224.743 129.802 223.994 129.641 223.238 129.653C222.549 129.641 221.866 129.778 221.236 130.056C220.672 130.302 220.187 130.699 219.835 131.203C219.486 131.739 219.309 132.368 219.327 133.007C219.308 133.551 219.42 134.092 219.656 134.584C219.864 134.986 220.164 135.334 220.531 135.599C220.899 135.863 221.297 136.079 221.718 136.243C222.156 136.418 222.594 136.58 223.01 136.729C223.418 136.868 223.816 137.037 224.201 137.233C224.544 137.397 224.844 137.64 225.077 137.942C225.306 138.273 225.42 138.67 225.401 139.072C225.406 139.33 225.347 139.585 225.229 139.814C225.112 140.043 224.939 140.24 224.726 140.386C224.197 140.733 223.572 140.903 222.94 140.872C222.28 140.887 221.626 140.737 221.039 140.434C220.497 140.128 220.031 139.703 219.678 139.19L218.526 140.337C219.024 140.982 219.654 141.514 220.374 141.896C221.156 142.275 222.018 142.459 222.887 142.435C223.986 142.491 225.071 142.161 225.952 141.502C226.329 141.189 226.628 140.793 226.826 140.345C227.024 139.896 227.114 139.408 227.091 138.919C227.111 138.353 226.997 137.79 226.758 137.277C226.557 136.87 226.268 136.513 225.913 136.23Z" fill="#DADADA"/>
<path d="M235.144 134.159C234.12 133.558 232.9 133.387 231.751 133.684C230.602 133.982 229.617 134.722 229.013 135.744C228.615 136.42 228.411 137.193 228.422 137.977C228.418 138.766 228.621 139.542 229.013 140.226C229.405 140.911 229.97 141.48 230.653 141.875C231.335 142.271 232.11 142.479 232.898 142.479C233.687 142.479 234.462 142.27 235.144 141.874C235.812 141.49 236.367 140.936 236.751 140.267C237.149 139.578 237.353 138.795 237.342 137.999C237.352 137.223 237.154 136.459 236.769 135.785C236.384 135.111 235.826 134.553 235.153 134.168L235.144 134.159ZM235.315 139.488C235.085 139.915 234.745 140.272 234.329 140.521C233.891 140.768 233.396 140.898 232.893 140.898C232.39 140.898 231.895 140.768 231.457 140.521C231.042 140.27 230.702 139.914 230.472 139.488C230.226 139.027 230.103 138.512 230.112 137.99C230.102 137.477 230.226 136.97 230.472 136.519C230.703 136.098 231.043 135.747 231.457 135.503C231.894 135.253 232.39 135.126 232.893 135.135C233.384 135.122 233.868 135.244 234.294 135.488C234.72 135.732 235.07 136.089 235.306 136.519C235.556 136.968 235.683 137.476 235.674 137.99C235.678 138.514 235.548 139.029 235.297 139.488H235.315Z" fill="#DADADA"/>
<path d="M242.123 131.242C242.281 131.09 242.469 130.972 242.675 130.896C242.881 130.821 243.1 130.79 243.319 130.805C243.548 130.796 243.776 130.838 243.986 130.928C244.197 131.018 244.385 131.154 244.536 131.326L245.596 130.284C245.32 129.975 244.985 129.725 244.611 129.548C244.209 129.373 243.774 129.288 243.336 129.298C242.745 129.283 242.16 129.425 241.642 129.71C241.167 129.974 240.772 130.361 240.499 130.831C240.217 131.338 240.075 131.911 240.087 132.49V133.765H237.99V135.236H240.087V142.286H241.712V135.236H244.422V133.765H241.712V132.49C241.682 132.037 241.83 131.589 242.123 131.242Z" fill="#DADADA"/>
<path d="M248.447 130.187H246.835V133.756H244.733V135.227H246.835V142.277H248.447V135.227H250.548V133.756H248.447V130.187Z" fill="#DADADA"/>
<path d="M260.292 139.659L258.137 133.756H257.205L255.05 139.659L252.878 133.756H251.192L254.568 142.277H255.501L257.677 136.611L259.841 142.277H260.795L264.149 133.756H262.459L260.292 139.659Z" fill="#DADADA"/>
<path d="M271.79 134.925C271.498 134.532 271.121 134.209 270.687 133.979C270.152 133.705 269.558 133.567 268.957 133.577C268.206 133.567 267.468 133.772 266.829 134.168C266.202 134.562 265.689 135.113 265.34 135.766C264.981 136.465 264.793 137.239 264.793 138.025C264.793 138.811 264.981 139.586 265.34 140.285C265.689 140.939 266.206 141.488 266.838 141.874C267.475 142.264 268.21 142.466 268.957 142.457C269.565 142.469 270.167 142.33 270.709 142.054C271.138 141.829 271.509 141.508 271.795 141.117V142.277H273.428V133.756H271.795L271.79 134.925ZM271.164 140.123C270.921 140.393 270.621 140.607 270.286 140.749C269.95 140.89 269.588 140.956 269.224 140.942C268.72 140.95 268.223 140.82 267.788 140.565C267.374 140.317 267.036 139.959 266.812 139.532C266.581 139.063 266.462 138.548 266.462 138.025C266.462 137.503 266.581 136.988 266.812 136.519C267.035 136.093 267.369 135.736 267.779 135.486C268.214 135.242 268.704 135.114 269.203 135.114C269.701 135.114 270.191 135.242 270.626 135.486C271.031 135.73 271.358 136.086 271.567 136.51C271.797 136.988 271.911 137.513 271.9 138.043C271.928 138.805 271.665 139.548 271.164 140.123Z" fill="#DADADA"/>
<path d="M280.868 133.8C280.499 133.647 280.102 133.571 279.703 133.577C279.287 133.55 278.871 133.624 278.49 133.793C278.109 133.961 277.774 134.219 277.513 134.544C277.461 134.614 277.417 134.698 277.369 134.772V133.756H275.757V142.277H277.369V137.417C277.343 137.101 277.381 136.784 277.479 136.483C277.578 136.183 277.735 135.905 277.942 135.665C278.136 135.475 278.366 135.326 278.619 135.228C278.872 135.129 279.142 135.083 279.414 135.092C279.671 135.087 279.926 135.13 280.167 135.219C280.395 135.308 280.599 135.449 280.762 135.63L281.818 134.536C281.56 134.222 281.235 133.971 280.868 133.8Z" fill="#DADADA"/>
<path d="M290.045 135.604C289.719 134.986 289.228 134.47 288.627 134.115C287.993 133.748 287.27 133.562 286.538 133.576C285.764 133.566 285.002 133.764 284.331 134.149C283.66 134.534 283.105 135.093 282.724 135.766C282.333 136.454 282.131 137.234 282.142 138.025C282.123 138.808 282.317 139.58 282.703 140.261C283.088 140.942 283.651 141.505 284.331 141.892C285.032 142.286 285.826 142.487 286.63 142.474C287.279 142.478 287.923 142.349 288.522 142.098C289.1 141.856 289.613 141.481 290.019 141.003L289.003 139.926C288.726 140.256 288.373 140.514 287.974 140.679C287.558 140.851 287.111 140.938 286.661 140.933C286.128 140.944 285.602 140.817 285.132 140.565C284.696 140.327 284.341 139.964 284.112 139.523C283.964 139.239 283.863 138.933 283.814 138.617H290.479C290.514 138.437 290.54 138.279 290.553 138.144C290.567 138.008 290.553 137.877 290.553 137.758C290.567 137.009 290.392 136.268 290.045 135.604ZM285.062 135.424C285.506 135.178 286.008 135.054 286.516 135.065C286.986 135.051 287.451 135.166 287.86 135.398C288.237 135.617 288.542 135.941 288.736 136.331C288.878 136.627 288.968 136.945 289.003 137.272H283.801C283.851 136.978 283.945 136.693 284.081 136.427C284.304 136.004 284.645 135.656 285.062 135.424Z" fill="#DADADA"/>
</svg>
